<svg width="626" height="626" viewBox="0 0 626 626" fill="none" xmlns="http://www.w3.org/2000/svg">
<g clip-path="url(#clip0_1_68)">
<path d="M0 0C206.58 0 413.16 0 626 0C626 206.58 626 413.16 626 626C419.42 626 212.84 626 0 626C0 419.42 0 212.84 0 0Z"/>
<path d="M269.441 240.839C270.098 240.834 270.755 240.829 271.432 240.824C273.638 240.808 275.844 240.8 278.05 240.791C279.63 240.782 281.21 240.772 282.791 240.762C287.989 240.73 293.188 240.71 298.387 240.691C299.273 240.688 300.159 240.685 301.072 240.681C309.44 240.651 317.807 240.624 326.175 240.607C336.852 240.585 347.529 240.543 358.206 240.474C365.725 240.426 373.245 240.402 380.764 240.395C385.247 240.39 389.73 240.375 394.213 240.335C398.443 240.298 402.672 240.29 406.902 240.303C408.441 240.303 409.981 240.293 411.521 240.271C426.73 240.069 440.144 244.039 452 254C452.632 254.521 453.263 255.042 453.914 255.578C462.871 263.706 468.243 275.269 469.282 287.251C469.395 290.899 469.417 294.536 469.404 298.185C469.41 299.576 469.417 300.967 469.425 302.358C469.443 306.104 469.442 309.85 469.436 313.596C469.433 316.737 469.439 319.878 469.445 323.019C469.459 330.435 469.457 337.851 469.446 345.267C469.435 352.888 469.449 360.509 469.475 368.131C469.498 374.703 469.504 381.275 469.498 387.847C469.495 391.759 469.497 395.672 469.515 399.584C469.53 403.266 469.526 406.947 469.507 410.629C469.502 412.604 469.516 414.579 469.531 416.554C469.405 432.013 463.654 444.674 453.199 455.965C443.245 465.176 431.086 469.146 417.837 469.154C416.449 469.16 416.449 469.16 415.033 469.167C411.93 469.181 408.828 469.187 405.725 469.193C403.501 469.201 401.276 469.209 399.052 469.218C391.744 469.244 384.437 469.259 377.129 469.273C374.61 469.279 372.092 469.284 369.573 469.29C359.093 469.311 348.613 469.33 338.132 469.341C335.415 469.344 332.697 469.347 329.98 469.35C329.304 469.351 328.629 469.352 327.933 469.352C317.008 469.365 306.083 469.398 295.158 469.44C283.923 469.482 272.688 469.505 261.453 469.511C255.153 469.515 248.853 469.527 242.552 469.559C236.618 469.589 230.685 469.596 224.752 469.584C222.582 469.584 220.413 469.592 218.243 469.609C199.509 469.753 185.459 466.844 171.25 453.688C162.471 444.434 156.848 431.77 156.902 419.047C156.904 418.387 156.905 417.726 156.907 417.046C156.912 414.947 156.925 412.849 156.938 410.75C156.943 409.323 156.947 407.896 156.951 406.469C156.962 402.979 156.979 399.49 157 396C158.965 398.574 160.6 401.085 162.125 403.938C165.049 408.73 169.007 410.714 174 413C174.66 413.33 175.32 413.66 176 414C178.864 414.105 181.705 414.148 184.57 414.147C185.468 414.151 186.366 414.155 187.291 414.158C190.318 414.169 193.344 414.173 196.371 414.177C198.534 414.183 200.697 414.19 202.86 414.197C208.751 414.214 214.642 414.225 220.533 414.233C224.212 414.238 227.892 414.244 231.572 414.251C243.082 414.27 254.592 414.284 266.102 414.292C279.392 414.302 292.682 414.328 305.973 414.369C316.241 414.399 326.51 414.414 336.778 414.417C342.913 414.419 349.047 414.428 355.181 414.453C360.956 414.477 366.73 414.481 372.504 414.471C374.621 414.47 376.737 414.477 378.854 414.49C381.75 414.508 384.645 414.501 387.541 414.488C388.373 414.499 389.206 414.51 390.063 414.521C397.143 414.444 403.133 412.447 408.559 407.816C409.179 407.073 409.799 406.329 410.438 405.562C411.076 404.821 411.714 404.08 412.371 403.316C415.808 398.429 416.301 394.014 416.306 388.156C416.315 387.381 416.323 386.606 416.332 385.808C416.356 383.253 416.365 380.699 416.371 378.145C416.38 376.36 416.389 374.575 416.398 372.79C416.415 369.048 416.423 365.307 416.426 361.565C416.431 356.792 416.469 352.019 416.514 347.246C416.544 343.557 416.551 339.869 416.552 336.181C416.556 334.422 416.569 332.664 416.59 330.905C416.885 317.157 416.885 317.157 411 305C405.46 299.808 400.057 296.748 392.334 296.755C390.64 296.749 390.64 296.749 388.911 296.743C387.68 296.749 386.45 296.755 385.183 296.76C383.182 296.757 381.182 296.754 379.182 296.751C377.036 296.749 374.891 296.752 372.745 296.756C368.264 296.764 363.784 296.753 359.303 296.739C346.563 296.701 333.823 296.683 321.083 296.695C314.043 296.701 307.003 296.689 299.963 296.658C295.515 296.64 291.068 296.643 286.621 296.662C283.192 296.671 279.764 296.647 276.335 296.628C275.113 296.639 273.891 296.651 272.632 296.663C264.304 296.573 258.256 295.05 252.124 289.215C244.844 281.511 245.332 272.124 245.562 262.109C245.922 255.908 247.503 251.403 252 247C257.573 242.539 262.292 240.881 269.441 240.839Z" fill="#0574BC"/>
<path d="M220.102 156.482C222.33 156.477 224.559 156.47 226.787 156.461C232.812 156.443 238.837 156.45 244.861 156.463C251.182 156.473 257.502 156.463 263.823 156.457C275.113 156.449 286.404 156.462 297.694 156.482C307.91 156.5 318.126 156.497 328.342 156.479C340.234 156.457 352.127 156.449 364.019 156.461C370.304 156.467 376.589 156.468 382.873 156.455C388.783 156.443 394.693 156.451 400.603 156.474C402.765 156.48 404.927 156.478 407.089 156.469C428.052 156.391 428.052 156.391 438 161C439.149 161.53 440.297 162.06 441.48 162.605C454.731 170.349 464.145 181.012 468.429 195.974C469.621 202.289 469.304 208.726 469.188 215.125C469.172 216.573 469.159 218.021 469.146 219.469C469.114 222.979 469.062 226.49 469 230C467.727 228.091 466.493 226.155 465.312 224.187C461.028 218.282 456.04 214.215 449 212C445.935 211.589 442.911 211.59 439.822 211.612C438.468 211.604 438.468 211.604 437.086 211.596C434.072 211.582 431.059 211.589 428.045 211.596C425.88 211.59 423.714 211.583 421.549 211.575C415.675 211.557 409.801 211.558 403.927 211.564C399.022 211.567 394.116 211.561 389.21 211.555C377.637 211.541 366.064 211.543 354.49 211.554C342.554 211.565 330.618 211.551 318.682 211.525C308.429 211.502 298.177 211.496 287.924 211.502C281.803 211.505 275.682 211.503 269.56 211.485C263.804 211.47 258.048 211.474 252.292 211.493C250.181 211.496 248.07 211.493 245.959 211.483C243.074 211.47 240.19 211.481 237.305 211.499C236.473 211.489 235.641 211.48 234.784 211.47C227.893 211.556 222.739 213.609 217.539 218.148C216.907 218.883 216.276 219.618 215.625 220.375C214.978 221.105 214.331 221.834 213.664 222.586C210.144 227.693 209.702 232.848 209.709 238.898C209.703 239.666 209.696 240.435 209.689 241.226C209.67 243.752 209.666 246.278 209.664 248.805C209.658 250.571 209.651 252.336 209.644 254.102C209.632 257.799 209.628 261.496 209.629 265.193C209.63 269.916 209.602 274.639 209.568 279.362C209.546 283.008 209.542 286.654 209.543 290.3C209.54 292.041 209.531 293.781 209.516 295.522C209.496 297.963 209.502 300.402 209.514 302.843C209.497 303.908 209.497 303.908 209.48 304.994C209.57 312.27 212.886 318.886 218 324C225.093 329.319 231.514 329.703 240.164 329.596C241.456 329.6 242.748 329.604 244.08 329.608C246.874 329.617 249.668 329.61 252.462 329.592C256.889 329.562 261.315 329.57 265.742 329.583C274.343 329.604 282.944 329.589 291.544 329.568C302.488 329.543 313.431 329.53 324.375 329.558C328.767 329.568 333.158 329.558 337.551 329.532C339.629 329.523 341.707 329.523 343.786 329.526C346.308 329.531 348.83 329.521 351.352 329.494C359.581 329.543 366.876 330.675 373.438 335.965C374.211 336.941 374.211 336.941 375 337.938C375.536 338.586 376.072 339.234 376.625 339.902C380.394 345.651 380.305 350.805 380.25 357.5C380.258 358.437 380.265 359.374 380.273 360.34C380.253 367.596 379.223 371.998 374.438 377.625C373.817 378.38 373.197 379.136 372.559 379.914C364.887 386.168 355.199 385.431 345.788 385.388C344.263 385.392 342.738 385.398 341.212 385.404C337.09 385.418 332.968 385.413 328.846 385.403C324.513 385.395 320.181 385.402 315.849 385.407C308.57 385.413 301.291 385.405 294.012 385.391C285.629 385.375 277.245 385.38 268.862 385.397C261.638 385.41 254.414 385.412 247.189 385.404C242.887 385.4 238.584 385.399 234.281 385.409C230.228 385.418 226.176 385.411 222.124 385.394C220.648 385.39 219.172 385.391 217.696 385.398C199.5 385.473 184.747 382.188 171.289 369.414C162.199 359.828 156.908 348.393 156.853 335.095C156.846 333.912 156.839 332.73 156.831 331.511C156.828 330.221 156.826 328.932 156.823 327.604C156.817 326.225 156.81 324.846 156.803 323.468C156.782 318.947 156.772 314.427 156.762 309.906C156.758 308.345 156.754 306.783 156.749 305.222C156.73 297.881 156.716 290.54 156.708 283.199C156.698 274.752 156.672 266.306 156.631 257.859C156.601 251.313 156.586 244.768 156.583 238.222C156.581 234.321 156.572 230.421 156.547 226.519C156.523 222.842 156.519 219.165 156.529 215.488C156.53 213.516 156.511 211.545 156.491 209.573C156.562 197.319 159.311 186.669 167 177C167.88 175.859 167.88 175.859 168.777 174.695C182.661 157.83 199.786 156.399 220.102 156.482Z" fill="#0673BB"/>
<path d="M467 352C467.66 352 468.32 352 469 352C469.093 361.571 469.164 371.143 469.207 380.715C469.228 385.16 469.256 389.606 469.302 394.051C469.346 398.35 469.369 402.649 469.38 406.948C469.387 408.579 469.401 410.21 469.423 411.842C469.646 429.273 465.213 442.99 453.199 455.965C443.947 464.527 432.056 469.129 419.603 469.12C418.5 469.122 418.5 469.122 417.375 469.123C414.917 469.124 412.459 469.119 410.001 469.114C408.236 469.113 406.472 469.113 404.708 469.114C399.921 469.114 395.134 469.108 390.348 469.101C385.344 469.095 380.341 469.095 375.337 469.093C365.864 469.09 356.39 469.082 346.916 469.072C336.131 469.061 325.345 469.055 314.559 469.05C292.372 469.04 270.186 469.022 248 469C248 468.67 248 468.34 248 468C249.35 467.987 249.35 467.987 250.726 467.974C272.627 467.768 294.528 467.55 316.428 467.321C327.019 467.211 337.61 467.104 348.201 467.005C357.433 466.92 366.665 466.827 375.897 466.726C380.785 466.673 385.672 466.623 390.56 466.582C395.163 466.543 399.766 466.494 404.368 466.439C406.055 466.42 407.742 466.405 409.428 466.393C411.738 466.376 414.047 466.348 416.356 466.316C417.647 466.304 418.937 466.291 420.267 466.277C424.436 465.968 427.974 465.113 432 464C432.676 463.855 433.352 463.709 434.048 463.56C436.296 463.022 436.296 463.022 439 461C439.99 461 440.98 461 442 461C442 460.01 442 459.02 442 458C444.64 457.67 447.28 457.34 450 457C450.371 455.639 450.371 455.639 450.75 454.25C452.52 449.649 454.96 447.693 459 445C459.73 442.437 459.73 442.437 460 440C460.66 440 461.32 440 462 440C462.121 439.42 462.242 438.84 462.367 438.242C462.619 437.07 462.619 437.07 462.875 435.875C463.119 434.726 463.119 434.726 463.367 433.555C464 431 464 431 465.034 428.413C466.253 424.105 466.192 420.28 466.094 415.832C466.073 413.949 466.055 412.065 466.039 410.182C466.03 409.181 466.02 408.181 466.011 407.149C465.992 401.623 466.107 396.099 466.219 390.574C466.241 389.438 466.263 388.302 466.286 387.131C466.356 383.65 466.428 380.169 466.5 376.688C466.548 374.278 466.597 371.868 466.645 369.459C466.761 363.639 466.879 357.82 467 352Z" fill="#1F498B"/>
<path d="M207 236C207.33 236 207.66 236 208 236C208.006 236.855 208.012 237.71 208.018 238.59C208.076 246.681 208.148 254.772 208.236 262.862C208.28 267.021 208.32 271.18 208.346 275.338C208.373 279.359 208.413 283.378 208.463 287.398C208.48 288.925 208.491 290.452 208.498 291.979C208.548 303.078 208.937 313.288 216.187 322.242C222.564 328.426 229.547 330.101 238.155 330.205C238.868 330.215 239.58 330.225 240.315 330.235C242.663 330.267 245.011 330.292 247.359 330.316C248.99 330.337 250.621 330.358 252.252 330.379C256.54 330.435 260.827 330.484 265.115 330.532C269.492 330.583 273.869 330.638 278.246 330.693C286.831 330.801 295.415 330.902 304 331C304 331.33 304 331.66 304 332C303.289 332.025 302.577 332.05 301.844 332.076C298.625 332.192 295.406 332.315 292.187 332.438C291.068 332.477 289.948 332.516 288.795 332.557C287.722 332.599 286.649 332.64 285.543 332.684C284.553 332.72 283.563 332.757 282.544 332.795C279.878 332.908 279.878 332.908 277 334C274.492 334.047 272.007 334.044 269.5 334C263.857 333.93 258.299 334.084 252.672 334.508C244.662 335.102 238.14 334.89 230.371 332.594C228.003 331.727 228.003 331.727 226 333C221.308 329.612 216.97 326.218 213 322C212.01 322.495 212.01 322.495 211 323C210.411 332.374 209.936 341.678 210.031 351.074C209.985 355.417 209.544 359.694 209 364C208.67 364 208.34 364 208 364C207.013 349.091 206.868 334.239 206.902 319.301C206.904 316.884 206.906 314.467 206.907 312.051C206.91 305.756 206.92 299.462 206.931 293.167C206.942 286.718 206.946 280.268 206.951 273.818C206.962 261.212 206.979 248.606 207 236Z" fill="#1361A5"/>
<path d="M418 352C418.33 352 418.66 352 419 352C419.023 364.204 419.041 376.409 419.052 388.613C419.057 394.279 419.064 399.946 419.075 405.613C419.086 411.078 419.092 416.544 419.095 422.01C419.097 424.098 419.1 426.186 419.106 428.274C419.113 431.193 419.114 434.112 419.114 437.031C419.117 437.899 419.121 438.767 419.124 439.661C419.119 443.026 419.072 445.785 418 449C417.34 449 416.68 449 416 449C416 434.48 416 419.96 416 405C413.36 407.31 410.72 409.62 408 412C407.34 412 406.68 412 406 412C406 412.66 406 413.32 406 414C404.886 414.309 403.773 414.619 402.625 414.938C399.205 415.823 399.205 415.823 397 417C393.897 417.365 390.769 417.449 387.648 417.586C386.678 417.629 385.707 417.672 384.708 417.716C373.228 418.156 361.763 417.951 350.281 417.703C346.581 417.624 342.88 417.557 339.18 417.492C336.799 417.446 334.419 417.399 332.039 417.352C330.4 417.322 330.4 417.322 328.728 417.291C323.078 417.164 317.592 416.823 312 416C312 415.67 312 415.34 312 415C313.045 414.996 314.09 414.993 315.166 414.989C325.038 414.952 334.91 414.894 344.782 414.816C349.856 414.777 354.93 414.744 360.005 414.729C364.907 414.714 369.809 414.679 374.711 414.632C376.576 414.617 378.441 414.609 380.307 414.608C395.388 414.739 395.388 414.739 408.523 407.992C409.134 407.294 409.745 406.595 410.375 405.875C411.001 405.192 411.628 404.509 412.273 403.805C418.424 393.814 417.546 382.204 417.688 370.875C417.721 369.042 417.755 367.208 417.791 365.375C417.875 360.917 417.942 356.459 418 352Z" fill="#255192"/>
<path d="M213.75 156.75C215.141 156.77 216.531 156.788 217.922 156.805C221.282 156.851 224.641 156.917 228 157C224.841 160.159 220.814 162.265 216.687 163.937C214.194 165.508 213.948 167.217 213 170C212.303 171.609 211.594 173.213 210.875 174.812C210.345 175.998 210.345 175.998 209.805 177.207C209.539 177.799 209.274 178.39 209 179C207.764 175.292 208.432 174.325 209.937 170.812C210.508 169.461 210.508 169.461 211.09 168.082C211.39 167.395 211.691 166.708 212 166C212.66 166 213.32 166 214 166C214 165.34 214 164.68 214 164C214.66 164 215.32 164 216 164C216 162.68 216 161.36 216 160C195.68 160.325 184.675 163.431 169.883 177.656C167.734 180.332 166.994 182.741 166 186C165.34 186.66 164.68 187.32 164 188C159.83 194.255 159.72 200.991 159.84 208.266C159.845 209.139 159.85 210.013 159.856 210.913C159.873 213.692 159.904 216.471 159.937 219.25C159.975 222.88 160.005 226.51 160.027 230.141C160.033 231.031 160.039 231.922 160.044 232.839C160.065 242.245 159.574 251.614 159 261C158.67 261 158.34 261 158 261C157.093 247.93 156.815 234.839 156.713 221.741C156.696 219.93 156.672 218.12 156.641 216.309C156.399 201.54 157.444 189.016 167 177C167.88 175.859 167.88 175.859 168.777 174.695C180.644 160.281 195.696 156.289 213.75 156.75Z" fill="#1C9EDD"/>
<path d="M157 396C159.47 399.258 161.62 402.593 163.719 406.098C164.986 407.979 166.345 409.456 168 411C165.36 410.67 162.72 410.34 160 410C159.153 425.042 159.153 425.042 164 439C164.63 440.121 164.63 440.121 165.273 441.266C166.881 443.974 168.381 446.401 170.652 448.598C172 450 172 450 172 452C172.66 452 173.32 452 174 452C174 452.66 174 453.32 174 454C174.66 454 175.32 454 176 454C176.33 454.66 176.66 455.32 177 456C180.193 458.128 183.408 459.666 187 461C187 461.66 187 462.32 187 463C187.71 463.133 188.421 463.266 189.152 463.402C190.071 463.579 190.991 463.756 191.938 463.938C193.312 464.199 193.312 464.199 194.715 464.465C197 465 197 465 198 466C200.973 466.077 203.922 466.09 206.895 466.062C208.804 466.054 210.713 466.045 212.623 466.037C214.138 466.028 214.138 466.028 215.685 466.018C232.09 465.922 248.476 465.994 264.875 466.5C265.655 466.524 266.434 466.548 267.237 466.573C271.492 466.706 275.746 466.848 280 467C280 467.33 280 467.66 280 468C261.886 468.77 243.757 469.19 225.628 469.342C223.478 469.364 221.327 469.394 219.177 469.434C200.007 469.776 185.807 467.166 171.25 453.688C162.471 444.434 156.848 431.77 156.902 419.047C156.904 418.387 156.905 417.726 156.907 417.046C156.912 414.947 156.925 412.849 156.938 410.75C156.943 409.323 156.947 407.896 156.951 406.469C156.962 402.979 156.979 399.49 157 396Z" fill="#2DAAE8"/>
<path d="M237.013 156.773C237.911 156.773 238.809 156.772 239.734 156.772C242.694 156.773 245.654 156.789 248.613 156.805C250.669 156.808 252.724 156.811 254.78 156.813C260.184 156.821 265.587 156.841 270.991 156.863C276.508 156.883 282.024 156.892 287.541 156.902C298.361 156.924 309.18 156.958 320 157C320 157.33 320 157.66 320 158C310.1 158.495 310.1 158.495 300 159C300 159.33 300 159.66 300 160C298.705 159.993 298.705 159.993 297.383 159.987C289.232 159.946 281.081 159.916 272.93 159.896C268.74 159.886 264.55 159.872 260.36 159.849C256.314 159.827 252.268 159.815 248.222 159.81C246.681 159.807 245.139 159.799 243.598 159.789C241.434 159.774 239.271 159.772 237.107 159.773C235.877 159.769 234.646 159.764 233.379 159.759C229.926 160.005 227.227 160.789 224 162C222.855 162.217 222.855 162.217 221.688 162.438C221.131 162.623 220.574 162.809 220 163C219.67 163.99 219.34 164.98 219 166C218.361 166.619 217.721 167.238 217.063 167.875C214.771 170.236 214.013 171.89 213 175C212.658 176.044 212.316 177.089 211.964 178.165C210.951 182.195 210.694 185.927 210.699 190.051C210.695 190.791 210.691 191.531 210.686 192.293C210.681 193.844 210.68 195.394 210.684 196.945C210.688 199.324 210.664 201.701 210.639 204.08C210.636 205.591 210.636 207.102 210.637 208.613C210.623 209.68 210.623 209.68 210.609 210.769C210.595 212.976 210.595 212.976 211 216C211.99 216.66 212.98 217.32 214 218C214.33 217.34 214.66 216.68 215 216C217.563 215.375 217.563 215.375 220 215C219.613 215.413 219.227 215.825 218.828 216.25C214.943 220.559 212.407 224.723 210 230C209.67 230 209.34 230 209 230C208.847 222.672 208.742 215.344 208.67 208.015C208.64 205.526 208.6 203.038 208.547 200.549C208.474 196.954 208.44 193.361 208.414 189.766C208.383 188.668 208.352 187.571 208.32 186.44C208.317 178.195 210.407 171.882 215 165C221.648 158.483 227.919 156.695 237.013 156.773Z" fill="#184488"/>
<path d="M263 243C262 245 262 245 258.687 246.813C254.33 249.232 251.814 251.959 249.945 256.645C247.308 266.006 246.525 277.205 251 286C253.157 287.284 255.277 288.106 257.625 289C260 290 260 290 262 292C265.11 292.279 265.11 292.279 268.758 292.195C269.421 292.192 270.084 292.19 270.767 292.187C272.887 292.176 275.006 292.15 277.125 292.125C278.561 292.115 279.997 292.106 281.434 292.098C284.956 292.076 288.478 292.041 292 292C292.33 292.66 292.66 293.32 293 294C326.66 294.33 360.32 294.66 395 295C395 295.33 395 295.66 395 296C377.945 296.117 360.89 296.205 343.834 296.259C335.915 296.285 327.995 296.32 320.075 296.377C313.17 296.427 306.265 296.459 299.359 296.47C295.705 296.477 292.051 296.492 288.397 296.529C284.311 296.569 280.226 296.57 276.139 296.568C274.937 296.586 273.735 296.604 272.497 296.622C264.216 296.571 258.218 295.012 252.124 289.215C244.844 281.509 245.332 272.125 245.562 262.109C245.923 255.901 247.51 251.415 252 247C258.566 241.522 258.566 241.522 263 243Z" fill="#75B1E4"/>
<path d="M157 296C157.33 296 157.66 296 158 296C158.05 297.22 158.1 298.44 158.152 299.697C158.342 304.263 158.542 308.829 158.745 313.395C158.831 315.364 158.914 317.332 158.995 319.301C159.111 322.147 159.238 324.991 159.367 327.836C159.401 328.703 159.434 329.57 159.468 330.463C159.753 336.459 160.672 342.149 162 348C163.32 348.33 164.64 348.66 166 349C165.752 349.66 165.505 350.32 165.25 351C164.881 355.427 166.835 358.239 169 362C169.516 362.969 170.031 363.939 170.562 364.938C171.904 367.3 171.904 367.3 175 368C175.598 368.784 176.196 369.567 176.812 370.375C179.275 373.329 181.502 374.49 185 376C185 376.66 185 377.32 185 378C185.99 378.103 186.98 378.206 188 378.312C190.995 378.712 192.754 379.338 195.625 380.625C199.219 382.047 201.863 382.004 205.691 381.59C213.91 380.847 222.07 380.89 230.312 380.938C231.843 380.943 233.374 380.947 234.904 380.951C238.603 380.962 242.301 380.979 246 381C246 381.66 246 382.32 246 383C248.64 383 251.28 383 254 383C254 383.33 254 383.66 254 384C246.758 384.093 239.517 384.164 232.274 384.207C228.91 384.228 225.547 384.256 222.183 384.302C218.303 384.351 214.423 384.373 210.543 384.391C209.353 384.411 208.163 384.432 206.937 384.453C192.757 384.457 180.984 378.877 170.687 369.188C162.316 360.301 156.852 348.63 156.886 336.302C156.887 335.401 156.887 334.5 156.887 333.573C156.892 332.614 156.897 331.656 156.902 330.668C156.904 329.676 156.905 328.684 156.907 327.663C156.912 324.504 156.925 321.346 156.937 318.188C156.943 316.042 156.947 313.897 156.951 311.752C156.962 306.501 156.979 301.251 157 296Z" fill="#1C428E"/>
<path d="M231 330C247.777 329.906 264.554 329.836 281.332 329.793C289.122 329.772 296.913 329.744 304.704 329.698C311.497 329.658 318.291 329.633 325.085 329.624C328.679 329.618 332.273 329.606 335.867 329.577C339.889 329.545 343.91 329.544 347.931 329.546C349.701 329.524 349.701 329.524 351.506 329.502C359.675 329.543 366.927 330.717 373.438 335.965C374.211 336.941 374.211 336.941 375 337.938C375.804 338.91 375.804 338.91 376.625 339.902C380.394 345.651 380.305 350.805 380.25 357.5C380.258 358.437 380.265 359.374 380.273 360.34C380.248 369.186 378.057 373.506 372.109 380.039C369.59 382.381 367.387 383.407 364 384C364 383.01 364 382.02 364 381C364.722 380.752 365.444 380.505 366.188 380.25C369.389 378.827 371.516 377.484 374 375C374.744 372.69 375.422 370.357 376 368C376.66 367.67 377.32 367.34 378 367C378.109 364.166 378.188 361.335 378.25 358.5C378.3 357.313 378.3 357.313 378.352 356.102C378.464 349.233 376.781 344.092 372.148 338.941C371.563 338.486 370.978 338.031 370.375 337.562C369.489 336.853 369.489 336.853 368.586 336.129C365.155 333.687 362.641 333.884 358.461 333.902C357.159 333.906 355.857 333.909 354.516 333.912C353.135 333.92 351.755 333.929 350.375 333.938C348.987 333.943 347.599 333.947 346.211 333.951C342.807 333.963 339.404 333.979 336 334C336 333.67 336 333.34 336 333C339.3 332.67 342.6 332.34 346 332C308.05 331.67 270.1 331.34 231 331C231 330.67 231 330.34 231 330Z" fill="#5FB1E3"/>
<path d="M455 174C463.373 181.388 468.526 191.559 469.236 202.711C469.329 206.85 469.263 210.986 469.188 215.125C469.172 216.573 469.159 218.021 469.146 219.469C469.114 222.979 469.062 226.49 469 230C467.727 228.091 466.493 226.155 465.312 224.188C461.005 218.25 456.043 214.288 449 212C446.182 211.713 443.583 211.562 440.77 211.568C439.979 211.557 439.188 211.547 438.373 211.537C435.781 211.507 433.19 211.497 430.598 211.488C428.792 211.471 426.986 211.453 425.18 211.434C420.443 211.386 415.707 211.357 410.971 211.33C406.131 211.301 401.291 211.254 396.451 211.209C386.968 211.123 377.484 211.056 368 211C368 210.67 368 210.34 368 210C386.634 209.28 405.276 208.84 423.925 208.713C426.006 208.696 428.088 208.672 430.17 208.641C433.125 208.599 436.08 208.583 439.035 208.574C439.909 208.557 440.783 208.539 441.683 208.521C447.944 208.543 452.487 210.104 458 213C458.71 213.34 459.421 213.68 460.152 214.03C462.168 215.088 463.438 216.364 465 218C465.33 218 465.66 218 466 218C466.321 204.867 466.321 204.867 464 192C463.66 190.335 463.323 188.669 463 187C462.34 187 461.68 187 461 187C460.752 186.299 460.505 185.598 460.25 184.875C459.035 181.849 459.035 181.849 456.875 178.812C455 176 455 176 455 174Z" fill="#389DD7"/>
<path d="M428 243C439.58 243.526 449.35 250.793 457 259C464.857 268.455 469.136 278.49 469.114 290.81C469.114 291.474 469.114 292.138 469.114 292.822C469.113 295.002 469.106 297.183 469.098 299.363C469.096 300.881 469.094 302.398 469.093 303.916C469.09 307.899 469.08 311.882 469.069 315.866C469.058 319.934 469.054 324.003 469.049 328.072C469.038 336.048 469.021 344.024 469 352C468.34 352 467.68 352 467 352C466.28 327.959 465.618 304.03 467 280C466.34 280 465.68 280 465 280C464.732 279.092 464.464 278.185 464.188 277.25C463.082 274.225 461.937 272.502 460 270C459.691 269.216 459.381 268.433 459.062 267.625C455.931 259.888 450.114 254.4 443 250.25C438.069 248.195 433.209 246.227 428 245C428 244.34 428 243.68 428 243Z" fill="#2C8AC8"/>
<path d="M417 262C418.839 263.557 419.894 264.462 420.367 266.868C420.364 267.568 420.36 268.268 420.356 268.99C420.359 269.788 420.362 270.587 420.366 271.41C420.353 272.272 420.341 273.135 420.328 274.023C420.326 274.921 420.324 275.818 420.322 276.742C420.316 278.647 420.302 280.552 420.281 282.457C420.25 285.329 420.24 288.201 420.234 291.074C420.225 292.932 420.215 294.79 420.203 296.648C420.199 297.491 420.195 298.333 420.19 299.201C420.136 303.857 419.902 308.457 419.507 313.097C418.864 320.995 418.772 328.882 418.684 336.801C418.663 338.374 418.642 339.947 418.621 341.521C418.566 345.616 418.516 349.711 418.468 353.806C418.417 358.003 418.362 362.2 418.307 366.396C418.2 374.598 418.098 382.799 418 391C417.67 391 417.34 391 417 391C416.796 379.25 416.609 367.5 416.438 355.75C416.425 354.88 416.412 354.01 416.399 353.114C415.96 322.717 416.079 292.39 417 262Z" fill="#4097D5"/>
<path d="M263 241C284.218 240.953 305.436 240.918 326.654 240.896C336.505 240.886 346.357 240.872 356.208 240.849C364.792 240.829 373.376 240.816 381.959 240.812C386.507 240.809 391.054 240.803 395.602 240.789C399.878 240.775 404.154 240.771 408.43 240.774C410.003 240.773 411.576 240.769 413.149 240.762C415.29 240.752 417.431 240.754 419.571 240.759C420.772 240.758 421.972 240.756 423.208 240.754C426 241 426 241 428 243C420.961 243.939 414.097 244.108 407 244C407 244.66 407 245.32 407 246C401.125 244.125 401.125 244.125 400 243C398.229 242.891 396.453 242.853 394.679 242.842C393.525 242.832 392.37 242.822 391.181 242.812C389.904 242.806 388.626 242.801 387.31 242.795C385.96 242.785 384.611 242.775 383.261 242.765C379.585 242.738 375.91 242.717 372.234 242.697C368.397 242.675 364.56 242.647 360.723 242.621C353.452 242.571 346.181 242.526 338.911 242.483C330.635 242.433 322.359 242.378 314.084 242.323C297.056 242.209 280.028 242.102 263 242C263 241.67 263 241.34 263 241Z" fill="#6990C2"/>
<path d="M356 242C362.101 241.851 368.202 241.742 374.304 241.67C376.377 241.64 378.45 241.6 380.522 241.547C383.514 241.474 386.504 241.44 389.496 241.414C390.412 241.383 391.328 241.352 392.272 241.32C399.275 241.317 403.727 243.415 409 248C416.348 256.115 417.295 263.259 417.195 273.961C417.192 275.107 417.19 276.252 417.187 277.433C417.176 281.08 417.15 284.728 417.125 288.375C417.115 290.853 417.106 293.331 417.098 295.809C417.076 301.872 417.042 307.936 417 314C415.493 311.993 413.989 309.985 412.5 307.965C412.005 307.296 411.51 306.627 411 305.938C410.505 305.266 410.01 304.594 409.5 303.902C408.1 302.127 406.633 300.56 405 299C405.66 298.34 406.32 297.68 407 297C407.398 297.505 407.797 298.011 408.207 298.531C408.737 299.181 409.267 299.831 409.812 300.5C410.596 301.475 410.596 301.475 411.395 302.469C412.992 304.345 412.992 304.345 416 304C415.881 299.056 415.756 294.112 415.628 289.168C415.585 287.491 415.543 285.813 415.503 284.135C415.291 275.38 415.055 266.704 414 258C413.34 258 412.68 258 412 258C412 256.68 412 255.36 412 254C411.34 254 410.68 254 410 254C409.402 253.031 408.804 252.061 408.188 251.063C406.318 247.799 406.318 247.799 403.25 247.125C402.507 247.084 401.765 247.043 401 247C401 246.34 401 245.68 401 245C386.031 243.766 371.008 243.453 356 243C356 242.67 356 242.34 356 242Z" fill="#0D4D9A"/>
<path d="M376 157C382.901 156.898 389.802 156.828 396.703 156.78C399.046 156.76 401.389 156.733 403.732 156.698C407.119 156.649 410.504 156.627 413.891 156.609C414.922 156.589 415.954 156.568 417.017 156.547C429.381 156.543 442.779 161.082 451.863 169.785C453.25 171.438 453.25 171.438 455 174C452.115 172.574 449.265 171.098 446.438 169.563C445.673 169.151 444.909 168.74 444.121 168.316C442 167 442 167 440.669 165.554C431.825 157.321 416.268 159.588 405.25 159.813C402.346 159.855 399.442 159.892 396.537 159.924C394.743 159.945 392.949 159.974 391.155 160.011C385.993 160.092 381.108 159.758 376 159C376 158.34 376 157.68 376 157Z" fill="#2888C7"/>
<path d="M361.839 292.87C365.152 292.874 368.464 292.872 371.776 292.866C374.992 292.862 378.207 292.865 381.422 292.867C382.6 292.865 383.778 292.863 384.992 292.861C386.637 292.866 386.637 292.866 388.315 292.871C389.75 292.872 389.75 292.872 391.214 292.873C394.207 293.009 397.057 293.453 400 294C400 294.66 400 295.32 400 296C401.65 296.33 403.3 296.66 405 297C405 297.66 405 298.32 405 299C404.508 298.789 404.015 298.579 403.508 298.362C394.327 295.008 384.846 295.52 375.211 295.488C373.297 295.471 371.383 295.453 369.469 295.434C364.462 295.387 359.455 295.357 354.447 295.33C349.325 295.301 344.204 295.254 339.082 295.209C329.055 295.123 319.027 295.056 309 295C309 294.67 309 294.34 309 294C326.618 293.167 344.202 292.841 361.839 292.87Z" fill="#1A63A9"/>
<path d="M467 352C467.66 352 468.32 352 469 352C469 376.75 469 401.5 469 427C465.926 423.926 466.501 420.225 466.348 416.082C466.309 415.157 466.27 414.232 466.23 413.279C465.797 401.08 466.14 388.886 466.438 376.688C466.491 374.278 466.544 371.869 466.596 369.459C466.723 363.639 466.858 357.82 467 352Z" fill="#225D9F"/>
<path d="M213.875 156.687C215.256 156.713 216.638 156.735 218.02 156.756C221.348 156.814 224.673 156.896 228 157C224.841 160.159 220.814 162.265 216.688 163.937C214.194 165.508 213.948 167.217 213 170C212.303 171.609 211.594 173.213 210.875 174.812C210.345 175.998 210.345 175.998 209.805 177.207C209.539 177.799 209.274 178.39 209 179C207.764 175.292 208.432 174.325 209.938 170.812C210.318 169.911 210.698 169.01 211.09 168.082C211.39 167.395 211.691 166.708 212 166C212.66 166 213.32 166 214 166C214 165.34 214 164.68 214 164C214.66 164 215.32 164 216 164C216 162.68 216 161.36 216 160C201.02 159.87 201.02 159.87 186.887 164.078C184.337 165.324 181.804 165.705 179 166C189.177 157.156 200.94 156.275 213.875 156.687Z" fill="#25A4E5"/>
<path d="M263 466.5C264.661 466.548 266.323 466.597 267.984 466.645C271.99 466.761 275.995 466.879 280 467C280 467.33 280 467.66 280 468C253.001 469.147 226.019 469.107 199 469C198.67 468.34 198.34 467.68 198 467C201.979 466.854 205.959 466.712 209.938 466.573C211.936 466.502 213.933 466.429 215.93 466.355C231.638 465.811 247.295 466.026 263 466.5Z" fill="#288ACA"/>
<path d="M418 352C418.33 352 418.66 352 419 352C419.023 364.204 419.041 376.409 419.052 388.613C419.057 394.279 419.064 399.946 419.075 405.613C419.086 411.078 419.092 416.544 419.095 422.01C419.097 424.098 419.1 426.186 419.106 428.274C419.113 431.193 419.114 434.112 419.114 437.031C419.117 437.899 419.121 438.767 419.124 439.661C419.119 443.026 419.072 445.785 418 449C417.34 449 416.68 449 416 449C415.932 437.525 416.145 426.069 416.438 414.598C416.483 412.781 416.527 410.964 416.572 409.147C416.689 404.417 416.808 399.687 416.927 394.958C417.049 390.111 417.169 385.263 417.289 380.416C417.524 370.944 417.761 361.472 418 352Z" fill="#175BA4"/>
<path d="M304 331C304 331.33 304 331.66 304 332C302.933 332.038 302.933 332.038 301.844 332.076C298.625 332.192 295.406 332.315 292.188 332.437C291.068 332.477 289.948 332.516 288.795 332.557C287.185 332.619 287.185 332.619 285.543 332.684C284.058 332.739 284.058 332.739 282.544 332.795C279.878 332.908 279.878 332.908 277 334C274.492 334.047 272.007 334.044 269.5 334C262.195 333.916 254.966 334.206 247.686 334.82C242.142 335.206 237.354 334.46 232 333C232 332.67 232 332.34 232 332C255.973 330.528 279.994 330.903 304 331Z" fill="#175A9D"/>
<path d="M208 308C209.542 310.314 210.703 312.386 211.875 314.875C215.499 322.083 219.698 325.658 227 329C230.296 330.011 233.422 330.194 236.859 330.316C237.974 330.358 239.089 330.4 240.238 330.443C241.397 330.483 242.556 330.522 243.75 330.562C244.924 330.606 246.099 330.649 247.309 330.693C250.206 330.799 253.103 330.901 256 331C256 331.33 256 331.66 256 332C255.162 331.995 254.325 331.99 253.461 331.984C250.357 331.967 247.252 331.955 244.147 331.945C242.141 331.938 240.135 331.925 238.129 331.912C236.872 331.909 235.615 331.906 234.32 331.902C233.158 331.897 231.995 331.892 230.797 331.886C228.045 331.806 228.045 331.806 226 333C222.18 330.241 218.552 327.565 215.25 324.188C213.015 321.648 213.015 321.648 209 321C208.67 316.71 208.34 312.42 208 308Z" fill="#1A3A83"/>
<path d="M308.974 330.886C309.934 330.887 310.895 330.887 311.885 330.887C313.421 330.894 313.421 330.894 314.988 330.902C316.047 330.904 317.105 330.905 318.195 330.907C321.568 330.912 324.94 330.925 328.312 330.937C330.602 330.943 332.892 330.947 335.182 330.951C340.788 330.962 346.394 330.979 352 331C352 331.33 352 331.66 352 332C334.652 335.302 316.508 333.918 299 333C299 332.67 299 332.34 299 332C302.387 331.237 305.505 330.877 308.974 330.886Z" fill="#1E81BE"/>
<path d="M209 177C209.33 177 209.66 177 210 177C210.015 178.171 210.029 179.342 210.044 180.548C210.102 184.883 210.179 189.218 210.262 193.553C210.296 195.431 210.324 197.309 210.346 199.187C210.38 201.883 210.432 204.578 210.488 207.273C210.495 208.116 210.501 208.959 210.508 209.827C210.539 212.439 210.539 212.439 211 216C211.99 216.66 212.98 217.32 214 218C214.33 217.34 214.66 216.68 215 216C217.562 215.375 217.562 215.375 220 215C219.613 215.412 219.227 215.825 218.828 216.25C214.943 220.559 212.407 224.723 210 230C209.67 230 209.34 230 209 230C209 212.51 209 195.02 209 177Z" fill="#0A3283"/>
<path d="M263 243C262 245 262 245 258.688 246.812C254.329 249.233 251.822 251.964 249.934 256.641C248.834 260.598 248.552 264.289 248.375 268.375C248.336 269.111 248.298 269.847 248.258 270.605C248.164 272.403 248.081 274.202 248 276C244.493 270.372 245.278 263.339 246 257C248.318 250.388 252.19 246.17 258.168 242.645C260 242 260 242 263 243Z" fill="#25AEEA"/>
<path d="M157 199C157.33 199 157.66 199 158 199C158.025 199.746 158.05 200.491 158.076 201.26C158.193 204.673 158.315 208.087 158.437 211.5C158.477 212.673 158.516 213.846 158.557 215.055C158.727 219.73 158.9 224.303 159.562 228.938C160.432 235.075 159.835 241.332 159.562 247.5C159.51 248.799 159.458 250.099 159.404 251.438C159.275 254.625 159.14 257.813 159 261C158.67 261 158.34 261 158 261C156.568 240.359 156.904 219.677 157 199Z" fill="#2B86C4"/>
<path d="M305.562 291.875C306.649 291.878 306.649 291.878 307.758 291.881C316.85 291.95 325.924 292.474 335 293C335 293.33 335 293.66 335 294C316.318 294.898 297.698 295.127 279 295C279 294.67 279 294.34 279 294C279.953 293.939 280.905 293.879 281.887 293.816C283.768 293.691 283.768 293.691 285.688 293.562C286.929 293.481 288.17 293.4 289.449 293.316C292.84 293.086 292.84 293.086 295.484 292.473C298.847 291.841 302.155 291.853 305.562 291.875Z" fill="#1983C5"/>
<path d="M416 266C416.33 266 416.66 266 417 266C417 281.84 417 297.68 417 314C415.494 311.992 413.989 309.985 412.5 307.965C411.757 306.961 411.757 306.961 411 305.938C410.257 304.93 410.257 304.93 409.5 303.902C408.1 302.127 406.633 300.56 405 299C405.66 298.34 406.32 297.68 407 297C407.398 297.505 407.797 298.011 408.207 298.531C408.737 299.181 409.267 299.831 409.812 300.5C410.335 301.15 410.857 301.799 411.395 302.469C412.992 304.345 412.992 304.345 416 304C415.947 302.593 415.947 302.593 415.892 301.158C415.763 297.658 415.638 294.158 415.518 290.658C415.465 289.147 415.409 287.635 415.352 286.125C415.269 283.945 415.194 281.766 415.121 279.586C415.074 278.277 415.027 276.968 414.978 275.619C414.998 272.279 415.343 269.267 416 266Z" fill="#063083"/>
<path d="M395 241C399.378 240.951 403.756 240.914 408.135 240.89C409.625 240.88 411.115 240.866 412.604 240.849C414.744 240.825 416.884 240.814 419.023 240.805C420.312 240.794 421.6 240.784 422.927 240.773C426 241 426 241 428 243C420.961 243.939 414.097 244.108 407 244C407 244.66 407 245.32 407 246C403 244.667 399 243.333 395 242C395 241.67 395 241.34 395 241Z" fill="#3DAEE8"/>
<path d="M208 321C209.485 321.99 209.485 321.99 211 323C211.058 325.858 210.948 328.481 210.688 331.312C210.563 332.954 210.442 334.596 210.324 336.238C210.264 337.049 210.204 337.859 210.142 338.694C209.951 341.8 209.959 344.889 210 348C210.055 353.396 209.676 358.649 209 364C208.67 364 208.34 364 208 364C206.895 349.585 207.183 335.427 208 321Z" fill="#204399"/>
<path d="M433 466C432.67 466.66 432.34 467.32 432 468C425.842 469.142 419.835 469.062 413.594 468.879C412.628 468.855 411.663 468.832 410.669 468.807C407.612 468.731 404.556 468.647 401.5 468.562C399.417 468.509 397.333 468.456 395.25 468.404C390.166 468.276 385.083 468.14 380 468C380 467.67 380 467.34 380 467C381.307 466.975 382.613 466.95 383.96 466.924C388.815 466.83 393.669 466.73 398.524 466.628C400.624 466.584 402.724 466.543 404.824 466.503C407.845 466.445 410.866 466.381 413.887 466.316C414.823 466.3 415.76 466.283 416.725 466.266C432.711 465.904 432.711 465.904 433 466Z" fill="#304997"/>
<path d="M428 243C440.897 243.586 450.327 252.327 459 261C458.625 263.125 458.625 263.125 458 265C457.505 264.154 457.01 263.309 456.5 262.438C449.94 252.62 439.181 247.634 428 245C428 244.34 428 243.68 428 243Z" fill="#25A7E1"/>
<path d="M170 450C170.66 450 171.32 450 172 450C172 450.66 172 451.32 172 452C172.66 452 173.32 452 174 452C174 452.66 174 453.32 174 454C174.66 454 175.32 454 176 454C176.33 454.66 176.66 455.32 177 456C180.193 458.128 183.408 459.666 187 461C187 461.66 187 462.32 187 463C190.3 463.66 193.6 464.32 197 465C197.33 465.99 197.66 466.98 198 468C186.661 465.69 177.892 460.547 170 452C170 451.34 170 450.68 170 450Z" fill="#26A4DB"/>
<path d="M466 425C466.66 425 467.32 425 468 425C467.893 431.207 466.392 435.904 463.625 441.438C463.321 442.053 463.016 442.668 462.703 443.301C461.059 446.463 460.025 447.983 457 450C456.67 449.01 456.34 448.02 456 447C456.99 446.34 457.98 445.68 459 445C459.73 442.437 459.73 442.437 460 440C460.66 440 461.32 440 462 440C462.121 439.42 462.242 438.84 462.367 438.242C463.337 433.72 464.434 429.362 466 425Z" fill="#194891"/>
<path d="M369 333C365.394 334.128 362.029 334.114 358.266 334.098C356.97 334.094 355.675 334.091 354.34 334.088C352.977 334.08 351.613 334.071 350.25 334.062C348.871 334.057 347.492 334.053 346.113 334.049C342.742 334.037 339.371 334.021 336 334C336 333.67 336 333.34 336 333C361.133 329.428 361.133 329.428 369 333Z" fill="#1D98D8"/>
<path d="M417 426C417.66 426 418.32 426 419 426C419.029 429.271 419.047 432.542 419.062 435.812C419.071 436.741 419.079 437.67 419.088 438.627C419.091 439.52 419.094 440.412 419.098 441.332C419.103 442.154 419.108 442.976 419.114 443.823C419 446 419 446 418 449C417.34 449 416.68 449 416 449C415.815 433.255 415.815 433.255 417 426Z" fill="#1A469A"/>
<path d="M225 159C224.67 159.99 224.34 160.98 224 162C222.667 162.333 221.333 162.667 220 163C219.67 163.99 219.34 164.98 219 166C218.361 166.619 217.721 167.238 217.062 167.875C213.267 171.786 212.416 176.842 211 182C210.67 182 210.34 182 210 182C209.371 175.085 210.73 170.533 215 165C221.444 159 221.444 159 225 159Z" fill="#233A94"/>
<path d="M429 158C439.125 161.153 448.556 165.284 455 174C452.115 172.574 449.265 171.098 446.438 169.562C445.673 169.151 444.909 168.74 444.121 168.316C442 167 442 167 440.609 165.477C438.284 163.343 435.805 162.746 432.812 161.812C431.726 161.468 430.639 161.124 429.52 160.77C428.688 160.516 427.857 160.262 427 160C427.66 159.34 428.32 158.68 429 158Z" fill="#229DDA"/>
<path d="M362 294C374.54 294 387.08 294 400 294C400 294.66 400 295.32 400 296C402.475 296.495 402.475 296.495 405 297C405 297.66 405 298.32 405 299C404.477 298.791 403.954 298.583 403.415 298.368C395.03 295.417 386.647 295.444 377.875 295.312C376.331 295.279 374.786 295.245 373.242 295.209C369.495 295.125 365.748 295.058 362 295C362 294.67 362 294.34 362 294Z" fill="#193F89"/>
<path d="M274 292C279.94 292 285.88 292 292 292C292.33 292.66 292.66 293.32 293 294C282.305 294.963 271.729 295.109 261 295C261 294.67 261 294.34 261 294C265.29 294 269.58 294 274 294C274 293.34 274 292.68 274 292Z" fill="#1E95D5"/>
<path d="M455 174C460.585 178.928 465.801 185.573 466.875 193.125C466.937 194.548 466.937 194.548 467 196C465 195 465 195 463.875 192.625C463 190 463 190 463 187C462.34 187 461.68 187 461 187C460.629 185.948 460.629 185.948 460.25 184.875C459.035 181.849 459.035 181.849 456.875 178.812C455 176 455 176 455 174Z" fill="#38AEE3"/>
<path d="M216 215C218.062 215.438 218.062 215.438 220 216C218.715 217.506 217.422 219.005 216.125 220.5C215.046 221.753 215.046 221.753 213.945 223.031C213.303 223.681 212.661 224.331 212 225C211.34 225 210.68 225 210 225C210 223.02 210 221.04 210 219C210.639 218.876 211.279 218.752 211.938 218.625C212.958 218.316 212.958 218.316 214 218C214.33 217.34 214.66 216.68 215 216C215.33 215.67 215.66 215.34 216 215Z" fill="#283C91"/>
<path d="M446 461C444.091 462.035 442.173 463.053 440.25 464.062C439.183 464.631 438.115 465.199 437.016 465.785C433.974 467.01 432.951 467.253 430 466C430.99 466 431.98 466 433 466C432.67 465.01 432.34 464.02 432 463C433.361 462.814 433.361 462.814 434.75 462.625C437.906 462.182 437.906 462.182 440.125 460.875C442.507 459.763 443.543 460.276 446 461Z" fill="#243583"/>
<path d="M406 297C407.145 298.176 407.145 298.176 408.312 299.375C411.6 302.864 411.6 302.864 416 304C416 305.98 416 307.96 416 310C415.34 310 414.68 310 414 310C412.598 308.355 412.598 308.355 411.062 306.188C409.195 303.565 407.341 301.216 405 299C405.33 298.34 405.66 297.68 406 297Z" fill="#213985"/>
<path d="M195 159C195 159.66 195 160.32 195 161C184.626 165.408 184.626 165.408 179 166C183.852 161.736 188.437 159 195 159Z" fill="#34ADE5"/>
<path d="M410 252C413 253 413 253 414.203 254.855C416.347 259.63 417.612 262.762 416 268C415.67 268 415.34 268 415 268C414.67 264.7 414.34 261.4 414 258C413.34 258 412.68 258 412 258C412 256.68 412 255.36 412 254C411.34 254 410.68 254 410 254C410 253.34 410 252.68 410 252Z" fill="#183E96"/>
<path d="M163 183C164.385 185.77 163.796 187.014 163 190C162.07 192.372 161.048 194.676 160 197C159.34 196.67 158.68 196.34 158 196C158.452 194.394 158.912 192.79 159.375 191.188C159.63 190.294 159.885 189.401 160.148 188.48C161 186 161 186 163 183Z" fill="#36A2DA"/>
<path d="M208 308C209.904 310.856 210.695 312.931 211.625 316.188C212.016 317.539 212.016 317.539 212.414 318.918C212.607 319.605 212.801 320.292 213 321C211.68 321 210.36 321 209 321C208.67 316.71 208.34 312.42 208 308Z" fill="#243D8C"/>
<path d="M225 159C224.67 159.99 224.34 160.98 224 162C222.667 162.333 221.333 162.667 220 163C219.67 163.99 219.34 164.98 219 166C217.438 167.688 217.438 167.688 216 169C215.01 168.67 214.02 168.34 213 168C221.75 159 221.75 159 225 159Z" fill="#154195"/>
<path d="M256 290C258.169 290.506 260 291 262 292C264.037 292.229 266.08 292.41 268.125 292.562C269.769 292.688 269.769 292.688 271.445 292.816C272.288 292.877 273.131 292.938 274 293C274 293.33 274 293.66 274 294C271.562 294.054 269.126 294.094 266.688 294.125C265.652 294.15 265.652 294.15 264.596 294.176C260.829 294.212 259.216 294.144 256 292C256 291.34 256 290.68 256 290Z" fill="#1BA3DF"/>
<path d="M450 455C450.99 455.33 451.98 455.66 453 456C451.929 456.869 450.843 457.72 449.75 458.562C449.147 459.038 448.543 459.514 447.922 460.004C446 461 446 461 443.766 460.652C443.183 460.437 442.6 460.222 442 460C442 459.34 442 458.68 442 458C444.64 457.67 447.28 457.34 450 457C450 456.34 450 455.68 450 455Z" fill="#30498D"/>
<path d="M367 334C370.688 334.498 372.605 335.101 375 338C374.67 338.99 374.34 339.98 374 341C372.83 340.024 371.664 339.044 370.5 338.062C369.85 337.517 369.201 336.972 368.531 336.41C368.026 335.945 367.521 335.479 367 335C367 334.67 367 334.34 367 334Z" fill="#21A8EA"/>
<path d="M187 464C190.3 464.33 193.6 464.66 197 465C197.33 465.99 197.66 466.98 198 468C190.375 466.25 190.375 466.25 187 464Z" fill="#37A0D8"/>
<path d="M160 349C162.427 351.427 164.098 354.148 166 357C165.67 357.66 165.34 358.32 165 359C161.328 355.92 160.432 353.752 160 349Z" fill="#19458F"/>
<path d="M250 250C250.99 250.33 251.98 250.66 253 251C251.68 253.31 250.36 255.62 249 258C248.67 258 248.34 258 248 258C248.875 251.125 248.875 251.125 250 250Z" fill="#1CA9E4"/>
<path d="M459 215C462 215 462 215 463.688 216.5C464.121 216.995 464.554 217.49 465 218C464.67 218.99 464.34 219.98 464 221C462.293 219.719 460.626 218.382 459 217C459 216.34 459 215.68 459 215Z" fill="#33AFE8"/>
</g>
<defs>
<clipPath id="clip0_1_68">
<rect width="626" height="626" fill="white"/>
</clipPath>
</defs>
</svg>
